#!OML:ASF H:\charlestonDancing\Project 1\Capture day 1\Session 1\femaleDancer.ASF
:FULLY-SPECIFIED
:DEGREES
16
root 0.206412 16.7837 -0.7155 37.4863 -88.0219 -35.4413
lowerback 19.3503 3.69107 6.33503
upperback 4.55711 5.88059 1.36166
thorax -5.34145 2.68935 -3.45967
lowerneck 4.41205 -3.8207 -2.54909
upperneck 2.7238 -5.2272 -1.77819
head 0.129138 -2.64912 -0.0685425
rclavicle -5.84427e-014 8.74653e-015
rhumerus -24.7458 4.15535 -79.5367
rradius 63.7569
rwrist 11.7348
rhand -34.0677 -33.3742
rfingers 7.12502
rthumb -7.24492 -63.2301
lclavicle -5.84427e-014 8.74653e-015
lhumerus -45.2754 29.3713 2.66235
lradius 150.568
lwrist 18.7547
lhand 3.50535 8.28178
lfingers 7.12502
lthumb 28.9433 36.0553
rfemur -35.2595 -5.22485 19.605
rtibia 66.3532
rfoot -26.9633 1.51198
rtoes -24.619
lfemur -28.3704 -1.72343 -27.0549
ltibia 54.5088
lfoot -19.5927 -8.01892
ltoes -8.69719
17
root 0.274264 16.791 -0.694855 36.0235 -87.9391 -34.042
lowerback 19.7883 3.62228 6.57964
upperback 4.69747 5.85326 1.45992
thorax -5.40709 2.66525 -3.51182
lowerneck 4.34729 -3.74568 -2.74805
upperneck 2.72937 -5.13462 -2.14152
head 0.136238 -2.60611 -0.14797
rclavicle 1.47101e-014 -7.95139e-015
rhumerus -26.3455 2.57601 -79.5759
rradius 60.7964
rwrist 11.652
rhand -33.8882 -33.5387
rfingers 7.12502
rthumb -7.07168 -63.4006
lclavicle 1.47101e-014 -7.95139e-015
lhumerus -44.9056 29.5297 3.11699
lradius 150.533
lwrist 18.6424
lhand 3.61303 8.48222
lfingers 7.12502
lthumb 29.0462 36.238
rfemur -35.1352 -6.18253 19.609
rtibia 67.9157
rfoot -26.2239 -0.355906
rtoes -21.4948
lfemur -28.4603 -1.4361 -27.1116
ltibia 54.2321
lfoot -18.9796 -8.36642
ltoes -8.49181
18
root 0.328881 16.8292 -0.668113 28.516 -87.8504 -26.3286
lowerback 19.8386 3.43385 6.68386
upperback 4.75724 5.62231 1.43629
thorax -5.37828 2.55245 -3.54533
lowerneck 4.39072 -3.6054 -3.25369
upperneck 2.71584 -4.97471 -2.0902
head 0.138278 -2.53158 -0.0533631
rclavicle 9.30312e-014 1.82882e-014
rhumerus -28.1221 1.22005 -79.6957
rradius 57.7003
rwrist 11.0748
rhand -30.6984 -36.064
rfingers 7.12502
rthumb -3.99193 -66.0063
lclavicle 9.30312e-014 1.82882e-014
lhumerus -44.9154 29.2856 3.63356
lradius 150.641
lwrist 18.2814
lhand 3.55099 8.87789
lfingers 7.12502
lthumb 28.9869 36.6439
rfemur -34.8313 -7.2922 19.38
rtibia 69.1709
rfoot -25.513 -1.15351
rtoes -19.3986
lfemur -28.5474 -1.39428 -27.3853
ltibia 53.5288
lfoot -18.0886 -8.74132
ltoes -7.30344
19
root 0.377546 16.8984 -0.6424 25.1479 -87.8682 -22.4599
lowerback 19.6444 3.28532 6.7815
upperback 4.67862 5.43967 1.36429
thorax -5.36283 2.46521 -3.62603
lowerneck 4.3553 -3.42103 -3.54344
upperneck 2.87631 -4.73919 -2.13769
head 0.196528 -2.42157 -0.0267548
rclavicle -2.10712e-014 3.18055e-014
rhumerus -30.1427 -0.0826713 -79.7545
rradius 54.5085
rwrist 10.2947
rhand -32.7371 -35.4308
rfingers 7.12502
rthumb -5.96039 -65.327
lclavicle -2.10712e-014 3.18055e-014
lhumerus -45.2336 28.641 4.1994
lradius 150.878
lwrist 17.7421
lhand 3.2775 9.25205
lfingers 7.12502
lthumb 28.7257 37.0626
rfemur -34.5387 -8.17154 19.2802
rtibia 70.087
rfoot -24.2827 -1.42563
rtoes -17.1792
lfemur -28.7563 -1.2971 -27.5305
ltibia 52.4465
lfoot -17.1223 -9.19914
ltoes -5.7519
20
root 0.424258 16.9953 -0.620645 31.4716 -87.9688 -28.1211
lowerback 19.3837 3.20724 7.02526
upperback 4.51367 5.38354 1.33581
thorax -5.38307 2.43591 -3.7684
lowerneck 4.1709 -3.23622 -3.40905
upperneck 3.13271 -4.47275 -2.54731
head 0.288915 -2.29565 -0.179723
rclavicle -7.27552e-014 3.18055e-015
rhumerus -32.4264 -1.45962 -79.652
rradius 51.4156
rwrist 10.0854
rhand -33.9807 -35.228
rfingers 7.12502
rthumb -7.1609 -65.0868
lclavicle -7.27552e-014 3.18055e-015
lhumerus -45.842 27.7718 4.7261
lradius 151.234
lwrist 17.2141
lhand 2.83364 9.45538
lfingers 7.12502
lthumb 28.3016 37.3371
rfemur -34.1277 -8.71287 19.577
rtibia 70.619
rfoot -21.7778 -2.42017
rtoes -14.576
lfemur -28.9982 -1.09807 -27.3093
ltibia 51.0381
lfoot -15.9556 -9.59193
ltoes -4.24446
21
root 0.4694 17.1112 -0.602206 41.1859 -87.961 -37.1601
lowerback 19.1691 3.09706 7.32662
upperback 4.33229 5.30135 1.33189
thorax -5.44548 2.39003 -3.91538
lowerneck 3.96646 -3.05194 -3.16136
upperneck 3.23989 -4.2032 -2.99284
head 0.337755 -2.16402 -0.359033
rclavicle 2.34566e-014 -2.22639e-014
rhumerus -34.8761 -2.81881 -79.326
rradius 48.8336
rwrist 10.0085
rhand -34.22 -36.4261
rfingers 7.12502
rthumb -7.39197 -66.277
lclavicle 2.34566e-014 -2.22639e-014
lhumerus -46.6821 26.8292 5.20305
lradius 151.649
lwrist 16.6335
lhand 2.29651 9.67758
lfingers 7.12502
lthumb 27.7881 37.6433
rfemur -33.3473 -9.14897 20.0509
rtibia 70.7388
rfoot -19.9063 -1.7039
rtoes -15.6398
lfemur -29.1298 -0.910005 -26.9281
ltibia 49.3848
lfoot -14.6423 -9.7616
ltoes -4.1327
22
root 0.514703 17.2397 -0.593082 52.586 -87.8328 -47.9145
lowerback 18.9979 2.97402 7.56419
upperback 4.18324 5.19105 1.38181
thorax -5.51117 2.32973 -3.96534
lowerneck 3.79063 -2.84043 -3.0027
upperneck 3.14444 -3.90812 -3.26283
head 0.328359 -2.01491 -0.469453
rclavicle -8.07066e-014 -1.27222e-014
rhumerus -37.3087 -4.03755 -78.7452
rradius 46.8606
rwrist 9.09366
rhand -34.6428 -37.639
rfingers 7.12502
rthumb -7.8 -67.4752
lclavicle -8.07066e-014 -1.27222e-014
lhumerus -47.7006 25.906 5.6855
lradius 152.102
lwrist 16.0081
lhand 1.70033 9.9215
lfingers 7.12502
lthumb 27.218 37.9779
rfemur -32.184 -9.4374 20.697
rtibia 70.4354
rfoot -17.95 -0.99179
rtoes -16.38
lfemur -29.1466 -0.680765 -26.3976
ltibia 47.5813
lfoot -13.2514 -9.89282
ltoes -4.40934
23
root 0.564731 17.3738 -0.592315 62.3064 -87.787 -56.9657
lowerback 18.8497 2.86429 7.49416
upperback 4.05939 5.03711 1.40856
thorax -5.59399 2.25168 -3.86077
lowerneck 3.61079 -2.58145 -2.88706
upperneck 2.89492 -3.55623 -3.42366
head 0.277375 -1.83351 -0.539211
rclavicle -2.18663e-014 -2.38542e-015
rhumerus -39.7059 -4.92709 -78.1369
rradius 44.8146
rwrist 9.23699
rhand -32.474 -38.5283
rfingers 7.12502
rthumb -5.70641 -68.4315
lclavicle -2.18663e-014 -2.38542e-015
lhumerus -48.9327 25.0782 5.90364
lradius 152.622
lwrist 15.6543
lhand 1.04174 10.1422
lfingers 7.12502
lthumb 26.5878 38.2958
rfemur -30.8475 -9.56674 21.247
rtibia 69.767
rfoot -15.9844 -0.318634
rtoes -16.1066
lfemur -29.152 -0.525588 -25.9786
ltibia 45.7176
lfoot -11.8994 -9.78466
ltoes -5.33536
24
root 0.621198 17.5039 -0.597011 71.6244 -87.7414 -65.569
lowerback 18.702 2.74889 7.29764
upperback 3.93986 4.85042 1.41333
thorax -5.68447 2.15972 -3.70233
lowerneck 3.40278 -2.30123 -2.73934
upperneck 2.57593 -3.17632 -3.56753
head 0.210809 -1.63613 -0.609324
rclavicle -5.24792e-014 1.19271e-014
rhumerus -42.0254 -5.61925 -77.4229
rradius 42.5717
rwrist 10.7646
rhand -34.1262 -38.8636
rfingers 7.12502
rthumb -7.30143 -68.7176
lclavicle -5.24792e-014 1.19271e-014
lhumerus -50.1761 24.3734 5.99437
lradius 153.148
lwrist 15.3867
lhand 0.517947 10.2695
lfingers 7.12502
lthumb 26.0864 38.4981
rfemur -29.4147 -9.55971 21.7799
rtibia 68.7131
rfoot -14.0627 0.251157
rtoes -16.5953
lfemur -29.2531 -0.446011 -25.6034
ltibia 43.9105
lfoot -10.6035 -9.6468
ltoes -6.54567
